<mxfile host="app.diagrams.net" modified="2024-06-24T04:17:26.989Z" agent="Mozilla/5.0 (Windows NT 10.0; Win64; x64) AppleWebKit/537.36 (KHTML, like Gecko) Chrome/126.0.0.0 Safari/537.36" etag="QY8lINkaDX4xBXPkgzyZ" version="24.6.2" type="google">
  <diagram id="R2lEEEUBdFMjLlhIrx00" name="Page-1">
    <mxGraphModel grid="1" page="1" gridSize="10" guides="1" tooltips="1" connect="1" arrows="1" fold="1" pageScale="1" pageWidth="1600" pageHeight="900" math="0" shadow="0" extFonts="Permanent Marker^https://fonts.googleapis.com/css?family=Permanent+Marker">
      <root>
        <mxCell id="0" />
        <mxCell id="1" parent="0" />
        <mxCell id="U-xJB6DXRSWDRLuAF7kE-79" style="edgeStyle=orthogonalEdgeStyle;rounded=0;orthogonalLoop=1;jettySize=auto;html=1;exitX=0;exitY=0.5;exitDx=0;exitDy=0;entryX=1;entryY=0.5;entryDx=0;entryDy=0;" edge="1" parent="1" source="U-xJB6DXRSWDRLuAF7kE-1" target="U-xJB6DXRSWDRLuAF7kE-72">
          <mxGeometry relative="1" as="geometry" />
        </mxCell>
        <mxCell id="U-xJB6DXRSWDRLuAF7kE-80" style="edgeStyle=orthogonalEdgeStyle;rounded=0;orthogonalLoop=1;jettySize=auto;html=1;exitX=0;exitY=0.5;exitDx=0;exitDy=0;entryX=1;entryY=0.5;entryDx=0;entryDy=0;" edge="1" parent="1" source="U-xJB6DXRSWDRLuAF7kE-1" target="U-xJB6DXRSWDRLuAF7kE-73">
          <mxGeometry relative="1" as="geometry" />
        </mxCell>
        <mxCell id="U-xJB6DXRSWDRLuAF7kE-81" style="edgeStyle=orthogonalEdgeStyle;rounded=0;orthogonalLoop=1;jettySize=auto;html=1;exitX=0;exitY=0.5;exitDx=0;exitDy=0;entryX=1;entryY=0.5;entryDx=0;entryDy=0;" edge="1" parent="1" source="U-xJB6DXRSWDRLuAF7kE-1" target="U-xJB6DXRSWDRLuAF7kE-75">
          <mxGeometry relative="1" as="geometry" />
        </mxCell>
        <mxCell id="U-xJB6DXRSWDRLuAF7kE-82" style="edgeStyle=orthogonalEdgeStyle;rounded=0;orthogonalLoop=1;jettySize=auto;html=1;exitX=0;exitY=0.5;exitDx=0;exitDy=0;entryX=1;entryY=0.5;entryDx=0;entryDy=0;" edge="1" parent="1" source="U-xJB6DXRSWDRLuAF7kE-1" target="U-xJB6DXRSWDRLuAF7kE-77">
          <mxGeometry relative="1" as="geometry" />
        </mxCell>
        <mxCell id="U-xJB6DXRSWDRLuAF7kE-1" value="registro" style="whiteSpace=wrap;html=1;align=center;" vertex="1" parent="1">
          <mxGeometry x="140" y="260" width="100" height="40" as="geometry" />
        </mxCell>
        <mxCell id="U-xJB6DXRSWDRLuAF7kE-111" style="edgeStyle=orthogonalEdgeStyle;rounded=0;orthogonalLoop=1;jettySize=auto;html=1;exitX=0.5;exitY=0;exitDx=0;exitDy=0;entryX=0.5;entryY=1;entryDx=0;entryDy=0;" edge="1" parent="1" source="U-xJB6DXRSWDRLuAF7kE-2" target="U-xJB6DXRSWDRLuAF7kE-108">
          <mxGeometry relative="1" as="geometry" />
        </mxCell>
        <mxCell id="U-xJB6DXRSWDRLuAF7kE-112" style="edgeStyle=orthogonalEdgeStyle;rounded=0;orthogonalLoop=1;jettySize=auto;html=1;exitX=0.5;exitY=0;exitDx=0;exitDy=0;entryX=0.5;entryY=1;entryDx=0;entryDy=0;" edge="1" parent="1" source="U-xJB6DXRSWDRLuAF7kE-2" target="U-xJB6DXRSWDRLuAF7kE-109">
          <mxGeometry relative="1" as="geometry" />
        </mxCell>
        <mxCell id="U-xJB6DXRSWDRLuAF7kE-2" value="hojas de vida" style="whiteSpace=wrap;html=1;align=center;" vertex="1" parent="1">
          <mxGeometry x="480" y="260" width="100" height="40" as="geometry" />
        </mxCell>
        <mxCell id="U-xJB6DXRSWDRLuAF7kE-120" style="edgeStyle=orthogonalEdgeStyle;rounded=0;orthogonalLoop=1;jettySize=auto;html=1;exitX=0.5;exitY=0;exitDx=0;exitDy=0;entryX=0.5;entryY=1;entryDx=0;entryDy=0;" edge="1" parent="1" source="U-xJB6DXRSWDRLuAF7kE-3" target="U-xJB6DXRSWDRLuAF7kE-118">
          <mxGeometry relative="1" as="geometry" />
        </mxCell>
        <mxCell id="U-xJB6DXRSWDRLuAF7kE-121" style="edgeStyle=orthogonalEdgeStyle;rounded=0;orthogonalLoop=1;jettySize=auto;html=1;exitX=0.5;exitY=0;exitDx=0;exitDy=0;entryX=0.5;entryY=1;entryDx=0;entryDy=0;" edge="1" parent="1" source="U-xJB6DXRSWDRLuAF7kE-3" target="U-xJB6DXRSWDRLuAF7kE-117">
          <mxGeometry relative="1" as="geometry" />
        </mxCell>
        <mxCell id="U-xJB6DXRSWDRLuAF7kE-122" style="edgeStyle=orthogonalEdgeStyle;rounded=0;orthogonalLoop=1;jettySize=auto;html=1;exitX=0.5;exitY=0;exitDx=0;exitDy=0;entryX=0.5;entryY=1;entryDx=0;entryDy=0;" edge="1" parent="1" source="U-xJB6DXRSWDRLuAF7kE-3" target="U-xJB6DXRSWDRLuAF7kE-116">
          <mxGeometry relative="1" as="geometry" />
        </mxCell>
        <mxCell id="U-xJB6DXRSWDRLuAF7kE-3" value="categorias" style="whiteSpace=wrap;html=1;align=center;" vertex="1" parent="1">
          <mxGeometry x="820" y="260" width="100" height="40" as="geometry" />
        </mxCell>
        <mxCell id="U-xJB6DXRSWDRLuAF7kE-128" style="edgeStyle=orthogonalEdgeStyle;rounded=0;orthogonalLoop=1;jettySize=auto;html=1;exitX=0.75;exitY=0;exitDx=0;exitDy=0;entryX=0.5;entryY=1;entryDx=0;entryDy=0;" edge="1" parent="1" source="U-xJB6DXRSWDRLuAF7kE-4" target="U-xJB6DXRSWDRLuAF7kE-124">
          <mxGeometry relative="1" as="geometry" />
        </mxCell>
        <mxCell id="U-xJB6DXRSWDRLuAF7kE-129" style="edgeStyle=orthogonalEdgeStyle;rounded=0;orthogonalLoop=1;jettySize=auto;html=1;exitX=0.75;exitY=0;exitDx=0;exitDy=0;entryX=0.5;entryY=1;entryDx=0;entryDy=0;" edge="1" parent="1" source="U-xJB6DXRSWDRLuAF7kE-4" target="U-xJB6DXRSWDRLuAF7kE-125">
          <mxGeometry relative="1" as="geometry" />
        </mxCell>
        <mxCell id="U-xJB6DXRSWDRLuAF7kE-130" style="edgeStyle=orthogonalEdgeStyle;rounded=0;orthogonalLoop=1;jettySize=auto;html=1;exitX=0.75;exitY=0;exitDx=0;exitDy=0;" edge="1" parent="1" source="U-xJB6DXRSWDRLuAF7kE-4" target="U-xJB6DXRSWDRLuAF7kE-126">
          <mxGeometry relative="1" as="geometry" />
        </mxCell>
        <mxCell id="U-xJB6DXRSWDRLuAF7kE-4" value="cargos" style="whiteSpace=wrap;html=1;align=center;" vertex="1" parent="1">
          <mxGeometry x="1160" y="260" width="100" height="40" as="geometry" />
        </mxCell>
        <mxCell id="U-xJB6DXRSWDRLuAF7kE-140" style="edgeStyle=orthogonalEdgeStyle;rounded=0;orthogonalLoop=1;jettySize=auto;html=1;exitX=0.5;exitY=0;exitDx=0;exitDy=0;entryX=0.5;entryY=1;entryDx=0;entryDy=0;" edge="1" parent="1" source="U-xJB6DXRSWDRLuAF7kE-5" target="U-xJB6DXRSWDRLuAF7kE-137">
          <mxGeometry relative="1" as="geometry" />
        </mxCell>
        <mxCell id="U-xJB6DXRSWDRLuAF7kE-141" style="edgeStyle=orthogonalEdgeStyle;rounded=0;orthogonalLoop=1;jettySize=auto;html=1;exitX=0.5;exitY=0;exitDx=0;exitDy=0;entryX=0.5;entryY=1;entryDx=0;entryDy=0;" edge="1" parent="1" source="U-xJB6DXRSWDRLuAF7kE-5" target="U-xJB6DXRSWDRLuAF7kE-138">
          <mxGeometry relative="1" as="geometry" />
        </mxCell>
        <mxCell id="U-xJB6DXRSWDRLuAF7kE-142" style="edgeStyle=orthogonalEdgeStyle;rounded=0;orthogonalLoop=1;jettySize=auto;html=1;exitX=0.5;exitY=0;exitDx=0;exitDy=0;entryX=0.5;entryY=1;entryDx=0;entryDy=0;" edge="1" parent="1" source="U-xJB6DXRSWDRLuAF7kE-5" target="U-xJB6DXRSWDRLuAF7kE-139">
          <mxGeometry relative="1" as="geometry" />
        </mxCell>
        <mxCell id="U-xJB6DXRSWDRLuAF7kE-5" value="vacantes" style="whiteSpace=wrap;html=1;align=center;" vertex="1" parent="1">
          <mxGeometry x="1500" y="260" width="100" height="40" as="geometry" />
        </mxCell>
        <mxCell id="U-xJB6DXRSWDRLuAF7kE-164" style="edgeStyle=orthogonalEdgeStyle;rounded=0;orthogonalLoop=1;jettySize=auto;html=1;exitX=1;exitY=0.5;exitDx=0;exitDy=0;entryX=0;entryY=0.5;entryDx=0;entryDy=0;" edge="1" parent="1" source="U-xJB6DXRSWDRLuAF7kE-6" target="U-xJB6DXRSWDRLuAF7kE-161">
          <mxGeometry relative="1" as="geometry" />
        </mxCell>
        <mxCell id="U-xJB6DXRSWDRLuAF7kE-165" style="edgeStyle=orthogonalEdgeStyle;rounded=0;orthogonalLoop=1;jettySize=auto;html=1;exitX=1;exitY=0.5;exitDx=0;exitDy=0;entryX=0;entryY=0.5;entryDx=0;entryDy=0;" edge="1" parent="1" source="U-xJB6DXRSWDRLuAF7kE-6" target="U-xJB6DXRSWDRLuAF7kE-162">
          <mxGeometry relative="1" as="geometry" />
        </mxCell>
        <mxCell id="U-xJB6DXRSWDRLuAF7kE-166" style="edgeStyle=orthogonalEdgeStyle;rounded=0;orthogonalLoop=1;jettySize=auto;html=1;exitX=1;exitY=0.5;exitDx=0;exitDy=0;entryX=0;entryY=0.5;entryDx=0;entryDy=0;" edge="1" parent="1" source="U-xJB6DXRSWDRLuAF7kE-6" target="U-xJB6DXRSWDRLuAF7kE-163">
          <mxGeometry relative="1" as="geometry" />
        </mxCell>
        <mxCell id="U-xJB6DXRSWDRLuAF7kE-6" value="postulaciones" style="whiteSpace=wrap;html=1;align=center;" vertex="1" parent="1">
          <mxGeometry x="1840" y="260" width="100" height="40" as="geometry" />
        </mxCell>
        <mxCell id="U-xJB6DXRSWDRLuAF7kE-158" style="edgeStyle=orthogonalEdgeStyle;rounded=0;orthogonalLoop=1;jettySize=auto;html=1;exitX=0.5;exitY=0;exitDx=0;exitDy=0;entryX=0.5;entryY=1;entryDx=0;entryDy=0;" edge="1" parent="1" source="U-xJB6DXRSWDRLuAF7kE-7" target="U-xJB6DXRSWDRLuAF7kE-155">
          <mxGeometry relative="1" as="geometry" />
        </mxCell>
        <mxCell id="U-xJB6DXRSWDRLuAF7kE-159" style="edgeStyle=orthogonalEdgeStyle;rounded=0;orthogonalLoop=1;jettySize=auto;html=1;exitX=0.5;exitY=0;exitDx=0;exitDy=0;entryX=0.5;entryY=1;entryDx=0;entryDy=0;" edge="1" parent="1" source="U-xJB6DXRSWDRLuAF7kE-7" target="U-xJB6DXRSWDRLuAF7kE-156">
          <mxGeometry relative="1" as="geometry" />
        </mxCell>
        <mxCell id="U-xJB6DXRSWDRLuAF7kE-160" style="edgeStyle=orthogonalEdgeStyle;rounded=0;orthogonalLoop=1;jettySize=auto;html=1;exitX=0.5;exitY=0;exitDx=0;exitDy=0;" edge="1" parent="1" source="U-xJB6DXRSWDRLuAF7kE-7" target="U-xJB6DXRSWDRLuAF7kE-157">
          <mxGeometry relative="1" as="geometry" />
        </mxCell>
        <mxCell id="U-xJB6DXRSWDRLuAF7kE-7" value="citas" style="whiteSpace=wrap;html=1;align=center;" vertex="1" parent="1">
          <mxGeometry x="1840" y="80" width="100" height="40" as="geometry" />
        </mxCell>
        <mxCell id="U-xJB6DXRSWDRLuAF7kE-176" style="edgeStyle=orthogonalEdgeStyle;rounded=0;orthogonalLoop=1;jettySize=auto;html=1;exitX=0.5;exitY=1;exitDx=0;exitDy=0;entryX=0.5;entryY=0;entryDx=0;entryDy=0;" edge="1" parent="1" source="U-xJB6DXRSWDRLuAF7kE-13" target="U-xJB6DXRSWDRLuAF7kE-173">
          <mxGeometry relative="1" as="geometry" />
        </mxCell>
        <mxCell id="U-xJB6DXRSWDRLuAF7kE-177" style="edgeStyle=orthogonalEdgeStyle;rounded=0;orthogonalLoop=1;jettySize=auto;html=1;exitX=0.5;exitY=1;exitDx=0;exitDy=0;entryX=0.5;entryY=0;entryDx=0;entryDy=0;" edge="1" parent="1" source="U-xJB6DXRSWDRLuAF7kE-13" target="U-xJB6DXRSWDRLuAF7kE-174">
          <mxGeometry relative="1" as="geometry" />
        </mxCell>
        <mxCell id="U-xJB6DXRSWDRLuAF7kE-178" style="edgeStyle=orthogonalEdgeStyle;rounded=0;orthogonalLoop=1;jettySize=auto;html=1;exitX=0.5;exitY=1;exitDx=0;exitDy=0;entryX=0.5;entryY=0;entryDx=0;entryDy=0;" edge="1" parent="1" source="U-xJB6DXRSWDRLuAF7kE-13" target="U-xJB6DXRSWDRLuAF7kE-175">
          <mxGeometry relative="1" as="geometry" />
        </mxCell>
        <mxCell id="U-xJB6DXRSWDRLuAF7kE-13" value="paz y salvos" style="whiteSpace=wrap;html=1;align=center;" vertex="1" parent="1">
          <mxGeometry x="1840" y="620" width="100" height="40" as="geometry" />
        </mxCell>
        <mxCell id="U-xJB6DXRSWDRLuAF7kE-134" style="edgeStyle=orthogonalEdgeStyle;rounded=0;orthogonalLoop=1;jettySize=auto;html=1;exitX=1;exitY=0.5;exitDx=0;exitDy=0;entryX=0.5;entryY=1;entryDx=0;entryDy=0;" edge="1" parent="1" source="U-xJB6DXRSWDRLuAF7kE-14" target="U-xJB6DXRSWDRLuAF7kE-131">
          <mxGeometry relative="1" as="geometry" />
        </mxCell>
        <mxCell id="U-xJB6DXRSWDRLuAF7kE-135" style="edgeStyle=orthogonalEdgeStyle;rounded=0;orthogonalLoop=1;jettySize=auto;html=1;exitX=1;exitY=0.5;exitDx=0;exitDy=0;entryX=0.5;entryY=1;entryDx=0;entryDy=0;" edge="1" parent="1" source="U-xJB6DXRSWDRLuAF7kE-14" target="U-xJB6DXRSWDRLuAF7kE-132">
          <mxGeometry relative="1" as="geometry" />
        </mxCell>
        <mxCell id="U-xJB6DXRSWDRLuAF7kE-136" style="edgeStyle=orthogonalEdgeStyle;rounded=0;orthogonalLoop=1;jettySize=auto;html=1;exitX=1;exitY=0.5;exitDx=0;exitDy=0;entryX=0.5;entryY=1;entryDx=0;entryDy=0;" edge="1" parent="1" source="U-xJB6DXRSWDRLuAF7kE-14" target="U-xJB6DXRSWDRLuAF7kE-133">
          <mxGeometry relative="1" as="geometry" />
        </mxCell>
        <mxCell id="U-xJB6DXRSWDRLuAF7kE-14" value="jornadas" style="whiteSpace=wrap;html=1;align=center;" vertex="1" parent="1">
          <mxGeometry x="1160" y="440" width="100" height="40" as="geometry" />
        </mxCell>
        <mxCell id="U-xJB6DXRSWDRLuAF7kE-105" style="edgeStyle=orthogonalEdgeStyle;rounded=0;orthogonalLoop=1;jettySize=auto;html=1;exitX=0.5;exitY=0;exitDx=0;exitDy=0;entryX=0.5;entryY=1;entryDx=0;entryDy=0;" edge="1" parent="1" source="U-xJB6DXRSWDRLuAF7kE-15" target="U-xJB6DXRSWDRLuAF7kE-102">
          <mxGeometry relative="1" as="geometry" />
        </mxCell>
        <mxCell id="U-xJB6DXRSWDRLuAF7kE-106" style="edgeStyle=orthogonalEdgeStyle;rounded=0;orthogonalLoop=1;jettySize=auto;html=1;exitX=0.5;exitY=0;exitDx=0;exitDy=0;entryX=0.5;entryY=1;entryDx=0;entryDy=0;" edge="1" parent="1" source="U-xJB6DXRSWDRLuAF7kE-15" target="U-xJB6DXRSWDRLuAF7kE-103">
          <mxGeometry relative="1" as="geometry" />
        </mxCell>
        <mxCell id="U-xJB6DXRSWDRLuAF7kE-107" style="edgeStyle=orthogonalEdgeStyle;rounded=0;orthogonalLoop=1;jettySize=auto;html=1;exitX=0.5;exitY=0;exitDx=0;exitDy=0;" edge="1" parent="1" source="U-xJB6DXRSWDRLuAF7kE-15" target="U-xJB6DXRSWDRLuAF7kE-104">
          <mxGeometry relative="1" as="geometry" />
        </mxCell>
        <mxCell id="U-xJB6DXRSWDRLuAF7kE-15" value="vacaciones" style="whiteSpace=wrap;html=1;align=center;" vertex="1" parent="1">
          <mxGeometry x="820" y="440" width="100" height="40" as="geometry" />
        </mxCell>
        <mxCell id="U-xJB6DXRSWDRLuAF7kE-146" style="edgeStyle=orthogonalEdgeStyle;rounded=0;orthogonalLoop=1;jettySize=auto;html=1;exitX=0.5;exitY=1;exitDx=0;exitDy=0;entryX=0.5;entryY=0;entryDx=0;entryDy=0;" edge="1" parent="1" source="U-xJB6DXRSWDRLuAF7kE-16" target="U-xJB6DXRSWDRLuAF7kE-143">
          <mxGeometry relative="1" as="geometry" />
        </mxCell>
        <mxCell id="U-xJB6DXRSWDRLuAF7kE-147" style="edgeStyle=orthogonalEdgeStyle;rounded=0;orthogonalLoop=1;jettySize=auto;html=1;exitX=0.5;exitY=1;exitDx=0;exitDy=0;entryX=0.5;entryY=0;entryDx=0;entryDy=0;" edge="1" parent="1" source="U-xJB6DXRSWDRLuAF7kE-16" target="U-xJB6DXRSWDRLuAF7kE-144">
          <mxGeometry relative="1" as="geometry" />
        </mxCell>
        <mxCell id="U-xJB6DXRSWDRLuAF7kE-148" style="edgeStyle=orthogonalEdgeStyle;rounded=0;orthogonalLoop=1;jettySize=auto;html=1;exitX=0.5;exitY=1;exitDx=0;exitDy=0;entryX=0.5;entryY=0;entryDx=0;entryDy=0;" edge="1" parent="1" source="U-xJB6DXRSWDRLuAF7kE-16" target="U-xJB6DXRSWDRLuAF7kE-145">
          <mxGeometry relative="1" as="geometry" />
        </mxCell>
        <mxCell id="U-xJB6DXRSWDRLuAF7kE-16" value="ausencias" style="whiteSpace=wrap;html=1;align=center;" vertex="1" parent="1">
          <mxGeometry x="990" y="610" width="100" height="40" as="geometry" />
        </mxCell>
        <mxCell id="U-xJB6DXRSWDRLuAF7kE-153" style="edgeStyle=orthogonalEdgeStyle;rounded=0;orthogonalLoop=1;jettySize=auto;html=1;exitX=0.5;exitY=1;exitDx=0;exitDy=0;entryX=0.5;entryY=0;entryDx=0;entryDy=0;" edge="1" parent="1" source="U-xJB6DXRSWDRLuAF7kE-17" target="U-xJB6DXRSWDRLuAF7kE-150">
          <mxGeometry relative="1" as="geometry" />
        </mxCell>
        <mxCell id="U-xJB6DXRSWDRLuAF7kE-17" value="horas_extra" style="whiteSpace=wrap;html=1;align=center;" vertex="1" parent="1">
          <mxGeometry x="1330" y="610" width="100" height="40" as="geometry" />
        </mxCell>
        <mxCell id="U-xJB6DXRSWDRLuAF7kE-170" style="edgeStyle=orthogonalEdgeStyle;rounded=0;orthogonalLoop=1;jettySize=auto;html=1;exitX=1;exitY=0.5;exitDx=0;exitDy=0;entryX=0;entryY=0.5;entryDx=0;entryDy=0;" edge="1" parent="1" source="U-xJB6DXRSWDRLuAF7kE-18" target="U-xJB6DXRSWDRLuAF7kE-167">
          <mxGeometry relative="1" as="geometry" />
        </mxCell>
        <mxCell id="U-xJB6DXRSWDRLuAF7kE-171" style="edgeStyle=orthogonalEdgeStyle;rounded=0;orthogonalLoop=1;jettySize=auto;html=1;exitX=1;exitY=0.5;exitDx=0;exitDy=0;entryX=0;entryY=0.5;entryDx=0;entryDy=0;" edge="1" parent="1" source="U-xJB6DXRSWDRLuAF7kE-18" target="U-xJB6DXRSWDRLuAF7kE-168">
          <mxGeometry relative="1" as="geometry" />
        </mxCell>
        <mxCell id="U-xJB6DXRSWDRLuAF7kE-172" style="edgeStyle=orthogonalEdgeStyle;rounded=0;orthogonalLoop=1;jettySize=auto;html=1;exitX=1;exitY=0.5;exitDx=0;exitDy=0;entryX=0;entryY=0.5;entryDx=0;entryDy=0;" edge="1" parent="1" source="U-xJB6DXRSWDRLuAF7kE-18" target="U-xJB6DXRSWDRLuAF7kE-169">
          <mxGeometry relative="1" as="geometry" />
        </mxCell>
        <mxCell id="U-xJB6DXRSWDRLuAF7kE-18" value="contratos" style="whiteSpace=wrap;html=1;align=center;" vertex="1" parent="1">
          <mxGeometry x="1840" y="440" width="100" height="40" as="geometry" />
        </mxCell>
        <mxCell id="U-xJB6DXRSWDRLuAF7kE-19" value="quejas y reclamos" style="whiteSpace=wrap;html=1;align=center;" vertex="1" parent="1">
          <mxGeometry x="980" y="60" width="100" height="40" as="geometry" />
        </mxCell>
        <mxCell id="U-xJB6DXRSWDRLuAF7kE-96" style="edgeStyle=orthogonalEdgeStyle;rounded=0;orthogonalLoop=1;jettySize=auto;html=1;exitX=0.5;exitY=1;exitDx=0;exitDy=0;entryX=0.5;entryY=0;entryDx=0;entryDy=0;" edge="1" parent="1" source="U-xJB6DXRSWDRLuAF7kE-20" target="U-xJB6DXRSWDRLuAF7kE-92">
          <mxGeometry relative="1" as="geometry" />
        </mxCell>
        <mxCell id="U-xJB6DXRSWDRLuAF7kE-97" style="edgeStyle=orthogonalEdgeStyle;rounded=0;orthogonalLoop=1;jettySize=auto;html=1;exitX=0.5;exitY=1;exitDx=0;exitDy=0;entryX=0.5;entryY=0;entryDx=0;entryDy=0;" edge="1" parent="1" source="U-xJB6DXRSWDRLuAF7kE-20" target="U-xJB6DXRSWDRLuAF7kE-93">
          <mxGeometry relative="1" as="geometry" />
        </mxCell>
        <mxCell id="U-xJB6DXRSWDRLuAF7kE-98" style="edgeStyle=orthogonalEdgeStyle;rounded=0;orthogonalLoop=1;jettySize=auto;html=1;exitX=0.5;exitY=1;exitDx=0;exitDy=0;entryX=0.5;entryY=0;entryDx=0;entryDy=0;" edge="1" parent="1" source="U-xJB6DXRSWDRLuAF7kE-20" target="U-xJB6DXRSWDRLuAF7kE-94">
          <mxGeometry relative="1" as="geometry" />
        </mxCell>
        <mxCell id="U-xJB6DXRSWDRLuAF7kE-20" value="experiencia" style="whiteSpace=wrap;html=1;align=center;" vertex="1" parent="1">
          <mxGeometry x="650" y="440" width="100" height="40" as="geometry" />
        </mxCell>
        <mxCell id="U-xJB6DXRSWDRLuAF7kE-88" style="edgeStyle=orthogonalEdgeStyle;rounded=0;orthogonalLoop=1;jettySize=auto;html=1;exitX=0.5;exitY=1;exitDx=0;exitDy=0;" edge="1" parent="1" source="U-xJB6DXRSWDRLuAF7kE-21" target="U-xJB6DXRSWDRLuAF7kE-83">
          <mxGeometry relative="1" as="geometry" />
        </mxCell>
        <mxCell id="U-xJB6DXRSWDRLuAF7kE-89" style="edgeStyle=orthogonalEdgeStyle;rounded=0;orthogonalLoop=1;jettySize=auto;html=1;exitX=0.5;exitY=1;exitDx=0;exitDy=0;entryX=0.5;entryY=0;entryDx=0;entryDy=0;" edge="1" parent="1" source="U-xJB6DXRSWDRLuAF7kE-21" target="U-xJB6DXRSWDRLuAF7kE-84">
          <mxGeometry relative="1" as="geometry" />
        </mxCell>
        <mxCell id="U-xJB6DXRSWDRLuAF7kE-91" style="edgeStyle=orthogonalEdgeStyle;rounded=0;orthogonalLoop=1;jettySize=auto;html=1;exitX=0.5;exitY=1;exitDx=0;exitDy=0;entryX=0.5;entryY=0;entryDx=0;entryDy=0;" edge="1" parent="1" source="U-xJB6DXRSWDRLuAF7kE-21" target="U-xJB6DXRSWDRLuAF7kE-85">
          <mxGeometry relative="1" as="geometry" />
        </mxCell>
        <mxCell id="U-xJB6DXRSWDRLuAF7kE-21" value="estudios" style="whiteSpace=wrap;html=1;align=center;" vertex="1" parent="1">
          <mxGeometry x="310" y="440" width="100" height="40" as="geometry" />
        </mxCell>
        <mxCell id="U-xJB6DXRSWDRLuAF7kE-42" style="edgeStyle=orthogonalEdgeStyle;rounded=0;orthogonalLoop=1;jettySize=auto;html=1;exitX=0;exitY=0.5;exitDx=0;exitDy=0;entryX=1;entryY=0.5;entryDx=0;entryDy=0;endArrow=ERmany;endFill=0;" edge="1" parent="1" source="U-xJB6DXRSWDRLuAF7kE-23" target="U-xJB6DXRSWDRLuAF7kE-1">
          <mxGeometry relative="1" as="geometry" />
        </mxCell>
        <mxCell id="U-xJB6DXRSWDRLuAF7kE-43" style="edgeStyle=orthogonalEdgeStyle;rounded=0;orthogonalLoop=1;jettySize=auto;html=1;exitX=1;exitY=0.5;exitDx=0;exitDy=0;entryX=0;entryY=0.5;entryDx=0;entryDy=0;endArrow=ERmandOne;endFill=0;" edge="1" parent="1" source="U-xJB6DXRSWDRLuAF7kE-23" target="U-xJB6DXRSWDRLuAF7kE-2">
          <mxGeometry relative="1" as="geometry" />
        </mxCell>
        <mxCell id="U-xJB6DXRSWDRLuAF7kE-23" value="sube" style="shape=rhombus;perimeter=rhombusPerimeter;whiteSpace=wrap;html=1;align=center;" vertex="1" parent="1">
          <mxGeometry x="300" y="250" width="120" height="60" as="geometry" />
        </mxCell>
        <mxCell id="U-xJB6DXRSWDRLuAF7kE-24" value="consulta" style="shape=rhombus;perimeter=rhombusPerimeter;whiteSpace=wrap;html=1;align=center;" vertex="1" parent="1">
          <mxGeometry x="640" y="250" width="120" height="60" as="geometry" />
        </mxCell>
        <mxCell id="U-xJB6DXRSWDRLuAF7kE-26" value="consulta" style="shape=rhombus;perimeter=rhombusPerimeter;whiteSpace=wrap;html=1;align=center;" vertex="1" parent="1">
          <mxGeometry x="980" y="250" width="120" height="60" as="geometry" />
        </mxCell>
        <mxCell id="U-xJB6DXRSWDRLuAF7kE-27" value="se postula a" style="shape=rhombus;perimeter=rhombusPerimeter;whiteSpace=wrap;html=1;align=center;" vertex="1" parent="1">
          <mxGeometry x="1320" y="250" width="120" height="60" as="geometry" />
        </mxCell>
        <mxCell id="U-xJB6DXRSWDRLuAF7kE-28" value="sube" style="shape=rhombus;perimeter=rhombusPerimeter;whiteSpace=wrap;html=1;align=center;" vertex="1" parent="1">
          <mxGeometry x="1660" y="250" width="120" height="60" as="geometry" />
        </mxCell>
        <mxCell id="U-xJB6DXRSWDRLuAF7kE-29" value="consulta" style="shape=rhombus;perimeter=rhombusPerimeter;whiteSpace=wrap;html=1;align=center;" vertex="1" parent="1">
          <mxGeometry x="1150" y="340" width="120" height="60" as="geometry" />
        </mxCell>
        <mxCell id="U-xJB6DXRSWDRLuAF7kE-31" value="asigna" style="shape=rhombus;perimeter=rhombusPerimeter;whiteSpace=wrap;html=1;align=center;" vertex="1" parent="1">
          <mxGeometry x="980" y="430" width="120" height="60" as="geometry" />
        </mxCell>
        <mxCell id="U-xJB6DXRSWDRLuAF7kE-32" value="registran" style="shape=rhombus;perimeter=rhombusPerimeter;whiteSpace=wrap;html=1;align=center;" vertex="1" parent="1">
          <mxGeometry x="980" y="520" width="120" height="60" as="geometry" />
        </mxCell>
        <mxCell id="U-xJB6DXRSWDRLuAF7kE-33" value="asigna" style="shape=rhombus;perimeter=rhombusPerimeter;whiteSpace=wrap;html=1;align=center;" vertex="1" parent="1">
          <mxGeometry x="1320" y="520" width="120" height="60" as="geometry" />
        </mxCell>
        <mxCell id="U-xJB6DXRSWDRLuAF7kE-35" value="asigna" style="shape=rhombus;perimeter=rhombusPerimeter;whiteSpace=wrap;html=1;align=center;" vertex="1" parent="1">
          <mxGeometry x="1830" y="160" width="120" height="60" as="geometry" />
        </mxCell>
        <mxCell id="U-xJB6DXRSWDRLuAF7kE-36" value="puede generar" style="shape=rhombus;perimeter=rhombusPerimeter;whiteSpace=wrap;html=1;align=center;" vertex="1" parent="1">
          <mxGeometry x="1830" y="340" width="120" height="60" as="geometry" />
        </mxCell>
        <mxCell id="U-xJB6DXRSWDRLuAF7kE-37" value="pueden emitir" style="shape=rhombus;perimeter=rhombusPerimeter;whiteSpace=wrap;html=1;align=center;" vertex="1" parent="1">
          <mxGeometry x="1830" y="520" width="120" height="60" as="geometry" />
        </mxCell>
        <mxCell id="U-xJB6DXRSWDRLuAF7kE-38" value="pueden realizar" style="shape=rhombus;perimeter=rhombusPerimeter;whiteSpace=wrap;html=1;align=center;" vertex="1" parent="1">
          <mxGeometry x="1040" y="140" width="120" height="60" as="geometry" />
        </mxCell>
        <mxCell id="U-xJB6DXRSWDRLuAF7kE-44" style="edgeStyle=orthogonalEdgeStyle;rounded=0;orthogonalLoop=1;jettySize=auto;html=1;exitX=1;exitY=0.5;exitDx=0;exitDy=0;entryX=0.25;entryY=1;entryDx=0;entryDy=0;endArrow=ERmandOne;endFill=0;" edge="1" parent="1" source="U-xJB6DXRSWDRLuAF7kE-39" target="U-xJB6DXRSWDRLuAF7kE-2">
          <mxGeometry relative="1" as="geometry" />
        </mxCell>
        <mxCell id="U-xJB6DXRSWDRLuAF7kE-45" style="edgeStyle=orthogonalEdgeStyle;rounded=0;orthogonalLoop=1;jettySize=auto;html=1;exitX=0.5;exitY=1;exitDx=0;exitDy=0;entryX=0.5;entryY=0;entryDx=0;entryDy=0;endArrow=ERmany;endFill=0;" edge="1" parent="1" source="U-xJB6DXRSWDRLuAF7kE-39" target="U-xJB6DXRSWDRLuAF7kE-21">
          <mxGeometry relative="1" as="geometry" />
        </mxCell>
        <mxCell id="U-xJB6DXRSWDRLuAF7kE-39" value="puede incluir" style="shape=rhombus;perimeter=rhombusPerimeter;whiteSpace=wrap;html=1;align=center;" vertex="1" parent="1">
          <mxGeometry x="300" y="340" width="120" height="60" as="geometry" />
        </mxCell>
        <mxCell id="U-xJB6DXRSWDRLuAF7kE-40" value="puede incluir" style="shape=rhombus;perimeter=rhombusPerimeter;whiteSpace=wrap;html=1;align=center;" vertex="1" parent="1">
          <mxGeometry x="640" y="340" width="120" height="60" as="geometry" />
        </mxCell>
        <mxCell id="U-xJB6DXRSWDRLuAF7kE-46" style="edgeStyle=orthogonalEdgeStyle;rounded=0;orthogonalLoop=1;jettySize=auto;html=1;exitX=0;exitY=0.5;exitDx=0;exitDy=0;entryX=0.75;entryY=1;entryDx=0;entryDy=0;endArrow=ERmandOne;endFill=0;" edge="1" parent="1" source="U-xJB6DXRSWDRLuAF7kE-40" target="U-xJB6DXRSWDRLuAF7kE-2">
          <mxGeometry relative="1" as="geometry">
            <mxPoint x="430" y="380" as="sourcePoint" />
            <mxPoint x="540" y="310" as="targetPoint" />
          </mxGeometry>
        </mxCell>
        <mxCell id="U-xJB6DXRSWDRLuAF7kE-47" style="edgeStyle=orthogonalEdgeStyle;rounded=0;orthogonalLoop=1;jettySize=auto;html=1;exitX=0.5;exitY=1;exitDx=0;exitDy=0;endArrow=ERmany;endFill=0;" edge="1" parent="1" source="U-xJB6DXRSWDRLuAF7kE-40" target="U-xJB6DXRSWDRLuAF7kE-20">
          <mxGeometry relative="1" as="geometry">
            <mxPoint x="370" y="410" as="sourcePoint" />
            <mxPoint x="370" y="450" as="targetPoint" />
          </mxGeometry>
        </mxCell>
        <mxCell id="U-xJB6DXRSWDRLuAF7kE-48" style="edgeStyle=orthogonalEdgeStyle;rounded=0;orthogonalLoop=1;jettySize=auto;html=1;exitX=0;exitY=0.5;exitDx=0;exitDy=0;entryX=1;entryY=0.5;entryDx=0;entryDy=0;endArrow=ERmandOne;endFill=0;" edge="1" parent="1" source="U-xJB6DXRSWDRLuAF7kE-24" target="U-xJB6DXRSWDRLuAF7kE-2">
          <mxGeometry relative="1" as="geometry">
            <mxPoint x="650" y="380" as="sourcePoint" />
            <mxPoint x="565" y="310" as="targetPoint" />
          </mxGeometry>
        </mxCell>
        <mxCell id="U-xJB6DXRSWDRLuAF7kE-49" style="edgeStyle=orthogonalEdgeStyle;rounded=0;orthogonalLoop=1;jettySize=auto;html=1;exitX=1;exitY=0.5;exitDx=0;exitDy=0;entryX=0;entryY=0.5;entryDx=0;entryDy=0;endArrow=ERmany;endFill=0;" edge="1" parent="1" source="U-xJB6DXRSWDRLuAF7kE-24" target="U-xJB6DXRSWDRLuAF7kE-3">
          <mxGeometry relative="1" as="geometry">
            <mxPoint x="310" y="290" as="sourcePoint" />
            <mxPoint x="250" y="290" as="targetPoint" />
          </mxGeometry>
        </mxCell>
        <mxCell id="U-xJB6DXRSWDRLuAF7kE-50" style="edgeStyle=orthogonalEdgeStyle;rounded=0;orthogonalLoop=1;jettySize=auto;html=1;exitX=0;exitY=0.5;exitDx=0;exitDy=0;entryX=1;entryY=0.5;entryDx=0;entryDy=0;endArrow=ERmandOne;endFill=0;" edge="1" parent="1" source="U-xJB6DXRSWDRLuAF7kE-26" target="U-xJB6DXRSWDRLuAF7kE-3">
          <mxGeometry relative="1" as="geometry">
            <mxPoint x="650" y="290" as="sourcePoint" />
            <mxPoint x="590" y="290" as="targetPoint" />
          </mxGeometry>
        </mxCell>
        <mxCell id="U-xJB6DXRSWDRLuAF7kE-51" style="edgeStyle=orthogonalEdgeStyle;rounded=0;orthogonalLoop=1;jettySize=auto;html=1;exitX=1;exitY=0.5;exitDx=0;exitDy=0;entryX=0;entryY=0.5;entryDx=0;entryDy=0;endArrow=ERmany;endFill=0;" edge="1" parent="1" source="U-xJB6DXRSWDRLuAF7kE-26" target="U-xJB6DXRSWDRLuAF7kE-4">
          <mxGeometry relative="1" as="geometry">
            <mxPoint x="770" y="290" as="sourcePoint" />
            <mxPoint x="830" y="290" as="targetPoint" />
          </mxGeometry>
        </mxCell>
        <mxCell id="U-xJB6DXRSWDRLuAF7kE-52" style="edgeStyle=orthogonalEdgeStyle;rounded=0;orthogonalLoop=1;jettySize=auto;html=1;exitX=0;exitY=0.5;exitDx=0;exitDy=0;entryX=1;entryY=0.5;entryDx=0;entryDy=0;endArrow=ERmandOne;endFill=0;" edge="1" parent="1" source="U-xJB6DXRSWDRLuAF7kE-27" target="U-xJB6DXRSWDRLuAF7kE-4">
          <mxGeometry relative="1" as="geometry">
            <mxPoint x="990" y="290" as="sourcePoint" />
            <mxPoint x="930" y="290" as="targetPoint" />
          </mxGeometry>
        </mxCell>
        <mxCell id="U-xJB6DXRSWDRLuAF7kE-53" style="edgeStyle=orthogonalEdgeStyle;rounded=0;orthogonalLoop=1;jettySize=auto;html=1;exitX=1;exitY=0.5;exitDx=0;exitDy=0;entryX=0;entryY=0.5;entryDx=0;entryDy=0;endArrow=ERmany;endFill=0;" edge="1" parent="1" source="U-xJB6DXRSWDRLuAF7kE-27" target="U-xJB6DXRSWDRLuAF7kE-5">
          <mxGeometry relative="1" as="geometry">
            <mxPoint x="1110" y="290" as="sourcePoint" />
            <mxPoint x="1170" y="290" as="targetPoint" />
          </mxGeometry>
        </mxCell>
        <mxCell id="U-xJB6DXRSWDRLuAF7kE-54" style="edgeStyle=orthogonalEdgeStyle;rounded=0;orthogonalLoop=1;jettySize=auto;html=1;exitX=0;exitY=0.5;exitDx=0;exitDy=0;entryX=1;entryY=0.5;entryDx=0;entryDy=0;endArrow=ERmandOne;endFill=0;" edge="1" parent="1" source="U-xJB6DXRSWDRLuAF7kE-28" target="U-xJB6DXRSWDRLuAF7kE-5">
          <mxGeometry relative="1" as="geometry">
            <mxPoint x="1330" y="290" as="sourcePoint" />
            <mxPoint x="1270" y="290" as="targetPoint" />
          </mxGeometry>
        </mxCell>
        <mxCell id="U-xJB6DXRSWDRLuAF7kE-55" style="edgeStyle=orthogonalEdgeStyle;rounded=0;orthogonalLoop=1;jettySize=auto;html=1;exitX=1;exitY=0.5;exitDx=0;exitDy=0;entryX=0;entryY=0.5;entryDx=0;entryDy=0;endArrow=ERmany;endFill=0;" edge="1" parent="1" source="U-xJB6DXRSWDRLuAF7kE-28" target="U-xJB6DXRSWDRLuAF7kE-6">
          <mxGeometry relative="1" as="geometry">
            <mxPoint x="1450" y="290" as="sourcePoint" />
            <mxPoint x="1510" y="290" as="targetPoint" />
          </mxGeometry>
        </mxCell>
        <mxCell id="U-xJB6DXRSWDRLuAF7kE-56" style="edgeStyle=orthogonalEdgeStyle;rounded=0;orthogonalLoop=1;jettySize=auto;html=1;exitX=0.5;exitY=0;exitDx=0;exitDy=0;entryX=0.5;entryY=1;entryDx=0;entryDy=0;endArrow=ERmandOne;endFill=0;" edge="1" parent="1" source="U-xJB6DXRSWDRLuAF7kE-36" target="U-xJB6DXRSWDRLuAF7kE-6">
          <mxGeometry relative="1" as="geometry">
            <mxPoint x="1670" y="290" as="sourcePoint" />
            <mxPoint x="1610" y="290" as="targetPoint" />
          </mxGeometry>
        </mxCell>
        <mxCell id="U-xJB6DXRSWDRLuAF7kE-57" style="edgeStyle=orthogonalEdgeStyle;rounded=0;orthogonalLoop=1;jettySize=auto;html=1;exitX=0.5;exitY=1;exitDx=0;exitDy=0;entryX=0.5;entryY=0;entryDx=0;entryDy=0;endArrow=ERmandOne;endFill=0;" edge="1" parent="1" source="U-xJB6DXRSWDRLuAF7kE-36" target="U-xJB6DXRSWDRLuAF7kE-18">
          <mxGeometry relative="1" as="geometry">
            <mxPoint x="1900" y="350" as="sourcePoint" />
            <mxPoint x="1900" y="310" as="targetPoint" />
          </mxGeometry>
        </mxCell>
        <mxCell id="U-xJB6DXRSWDRLuAF7kE-58" style="edgeStyle=orthogonalEdgeStyle;rounded=0;orthogonalLoop=1;jettySize=auto;html=1;exitX=0.5;exitY=0;exitDx=0;exitDy=0;entryX=0.5;entryY=1;entryDx=0;entryDy=0;endArrow=ERmandOne;endFill=0;" edge="1" parent="1" source="U-xJB6DXRSWDRLuAF7kE-37" target="U-xJB6DXRSWDRLuAF7kE-18">
          <mxGeometry relative="1" as="geometry">
            <mxPoint x="1900" y="350" as="sourcePoint" />
            <mxPoint x="1900" y="310" as="targetPoint" />
          </mxGeometry>
        </mxCell>
        <mxCell id="U-xJB6DXRSWDRLuAF7kE-59" style="edgeStyle=orthogonalEdgeStyle;rounded=0;orthogonalLoop=1;jettySize=auto;html=1;exitX=0.5;exitY=1;exitDx=0;exitDy=0;entryX=0.5;entryY=0;entryDx=0;entryDy=0;endArrow=ERmany;endFill=0;" edge="1" parent="1" source="U-xJB6DXRSWDRLuAF7kE-37" target="U-xJB6DXRSWDRLuAF7kE-13">
          <mxGeometry relative="1" as="geometry">
            <mxPoint x="1450" y="290" as="sourcePoint" />
            <mxPoint x="1510" y="290" as="targetPoint" />
          </mxGeometry>
        </mxCell>
        <mxCell id="U-xJB6DXRSWDRLuAF7kE-60" style="edgeStyle=orthogonalEdgeStyle;rounded=0;orthogonalLoop=1;jettySize=auto;html=1;exitX=0.5;exitY=1;exitDx=0;exitDy=0;entryX=0.5;entryY=0;entryDx=0;entryDy=0;endArrow=ERmandOne;endFill=0;" edge="1" parent="1" source="U-xJB6DXRSWDRLuAF7kE-35" target="U-xJB6DXRSWDRLuAF7kE-6">
          <mxGeometry relative="1" as="geometry">
            <mxPoint x="1900" y="350" as="sourcePoint" />
            <mxPoint x="1900" y="310" as="targetPoint" />
          </mxGeometry>
        </mxCell>
        <mxCell id="U-xJB6DXRSWDRLuAF7kE-61" style="edgeStyle=orthogonalEdgeStyle;rounded=0;orthogonalLoop=1;jettySize=auto;html=1;entryX=0.5;entryY=1;entryDx=0;entryDy=0;endArrow=ERmany;endFill=0;" edge="1" parent="1" target="U-xJB6DXRSWDRLuAF7kE-7">
          <mxGeometry relative="1" as="geometry">
            <mxPoint x="1890" y="160" as="sourcePoint" />
            <mxPoint x="1850" y="290" as="targetPoint" />
          </mxGeometry>
        </mxCell>
        <mxCell id="U-xJB6DXRSWDRLuAF7kE-62" style="edgeStyle=orthogonalEdgeStyle;rounded=0;orthogonalLoop=1;jettySize=auto;html=1;exitX=0.5;exitY=1;exitDx=0;exitDy=0;entryX=0.25;entryY=0;entryDx=0;entryDy=0;endArrow=ERmany;endFill=0;" edge="1" parent="1" source="U-xJB6DXRSWDRLuAF7kE-38" target="U-xJB6DXRSWDRLuAF7kE-4">
          <mxGeometry relative="1" as="geometry">
            <mxPoint x="1110" y="290" as="sourcePoint" />
            <mxPoint x="1170" y="290" as="targetPoint" />
          </mxGeometry>
        </mxCell>
        <mxCell id="U-xJB6DXRSWDRLuAF7kE-63" style="edgeStyle=orthogonalEdgeStyle;rounded=0;orthogonalLoop=1;jettySize=auto;html=1;exitX=0.5;exitY=0;exitDx=0;exitDy=0;entryX=0.5;entryY=1;entryDx=0;entryDy=0;endArrow=ERmany;endFill=0;" edge="1" parent="1" source="U-xJB6DXRSWDRLuAF7kE-38" target="U-xJB6DXRSWDRLuAF7kE-19">
          <mxGeometry relative="1" as="geometry">
            <mxPoint x="1220" y="230" as="sourcePoint" />
            <mxPoint x="1220" y="270" as="targetPoint" />
          </mxGeometry>
        </mxCell>
        <mxCell id="U-xJB6DXRSWDRLuAF7kE-64" style="edgeStyle=orthogonalEdgeStyle;rounded=0;orthogonalLoop=1;jettySize=auto;html=1;exitX=0;exitY=0.5;exitDx=0;exitDy=0;endArrow=ERmany;endFill=0;entryX=1;entryY=0.5;entryDx=0;entryDy=0;" edge="1" parent="1" source="U-xJB6DXRSWDRLuAF7kE-31" target="U-xJB6DXRSWDRLuAF7kE-15">
          <mxGeometry relative="1" as="geometry">
            <mxPoint x="710" y="410" as="sourcePoint" />
            <mxPoint x="710" y="450" as="targetPoint" />
          </mxGeometry>
        </mxCell>
        <mxCell id="U-xJB6DXRSWDRLuAF7kE-65" style="edgeStyle=orthogonalEdgeStyle;rounded=0;orthogonalLoop=1;jettySize=auto;html=1;exitX=1;exitY=0.5;exitDx=0;exitDy=0;entryX=0;entryY=0.5;entryDx=0;entryDy=0;endArrow=ERmandOne;endFill=0;" edge="1" parent="1" source="U-xJB6DXRSWDRLuAF7kE-31" target="U-xJB6DXRSWDRLuAF7kE-14">
          <mxGeometry relative="1" as="geometry">
            <mxPoint x="990" y="290" as="sourcePoint" />
            <mxPoint x="930" y="290" as="targetPoint" />
          </mxGeometry>
        </mxCell>
        <mxCell id="U-xJB6DXRSWDRLuAF7kE-66" style="edgeStyle=orthogonalEdgeStyle;rounded=0;orthogonalLoop=1;jettySize=auto;html=1;exitX=0.5;exitY=0;exitDx=0;exitDy=0;endArrow=ERmany;endFill=0;entryX=0.25;entryY=1;entryDx=0;entryDy=0;" edge="1" parent="1" source="U-xJB6DXRSWDRLuAF7kE-32" target="U-xJB6DXRSWDRLuAF7kE-14">
          <mxGeometry relative="1" as="geometry">
            <mxPoint x="990" y="470" as="sourcePoint" />
            <mxPoint x="930" y="470" as="targetPoint" />
          </mxGeometry>
        </mxCell>
        <mxCell id="U-xJB6DXRSWDRLuAF7kE-67" style="edgeStyle=orthogonalEdgeStyle;rounded=0;orthogonalLoop=1;jettySize=auto;html=1;exitX=0.5;exitY=1;exitDx=0;exitDy=0;endArrow=ERmany;endFill=0;entryX=0.5;entryY=0;entryDx=0;entryDy=0;" edge="1" parent="1" source="U-xJB6DXRSWDRLuAF7kE-32" target="U-xJB6DXRSWDRLuAF7kE-16">
          <mxGeometry relative="1" as="geometry">
            <mxPoint x="1220" y="530" as="sourcePoint" />
            <mxPoint x="1220" y="490" as="targetPoint" />
          </mxGeometry>
        </mxCell>
        <mxCell id="U-xJB6DXRSWDRLuAF7kE-68" style="edgeStyle=orthogonalEdgeStyle;rounded=0;orthogonalLoop=1;jettySize=auto;html=1;exitX=0.5;exitY=0;exitDx=0;exitDy=0;entryX=0.75;entryY=1;entryDx=0;entryDy=0;endArrow=ERmandOne;endFill=0;" edge="1" parent="1" source="U-xJB6DXRSWDRLuAF7kE-33" target="U-xJB6DXRSWDRLuAF7kE-14">
          <mxGeometry relative="1" as="geometry">
            <mxPoint x="1110" y="470" as="sourcePoint" />
            <mxPoint x="1170" y="470" as="targetPoint" />
          </mxGeometry>
        </mxCell>
        <mxCell id="U-xJB6DXRSWDRLuAF7kE-69" style="edgeStyle=orthogonalEdgeStyle;rounded=0;orthogonalLoop=1;jettySize=auto;html=1;exitX=0.5;exitY=1;exitDx=0;exitDy=0;endArrow=ERmany;endFill=0;entryX=0.5;entryY=0;entryDx=0;entryDy=0;" edge="1" parent="1" source="U-xJB6DXRSWDRLuAF7kE-33" target="U-xJB6DXRSWDRLuAF7kE-17">
          <mxGeometry relative="1" as="geometry">
            <mxPoint x="990" y="470" as="sourcePoint" />
            <mxPoint x="930" y="470" as="targetPoint" />
          </mxGeometry>
        </mxCell>
        <mxCell id="U-xJB6DXRSWDRLuAF7kE-70" style="edgeStyle=orthogonalEdgeStyle;rounded=0;orthogonalLoop=1;jettySize=auto;html=1;exitX=0.5;exitY=0;exitDx=0;exitDy=0;entryX=0.5;entryY=1;entryDx=0;entryDy=0;endArrow=ERmandOne;endFill=0;dashed=1;" edge="1" parent="1" source="U-xJB6DXRSWDRLuAF7kE-29" target="U-xJB6DXRSWDRLuAF7kE-4">
          <mxGeometry relative="1" as="geometry">
            <mxPoint x="990" y="290" as="sourcePoint" />
            <mxPoint x="930" y="290" as="targetPoint" />
          </mxGeometry>
        </mxCell>
        <mxCell id="U-xJB6DXRSWDRLuAF7kE-71" style="edgeStyle=orthogonalEdgeStyle;rounded=0;orthogonalLoop=1;jettySize=auto;html=1;exitX=0.5;exitY=1;exitDx=0;exitDy=0;endArrow=ERmany;endFill=0;entryX=0.5;entryY=0;entryDx=0;entryDy=0;dashed=1;" edge="1" parent="1" source="U-xJB6DXRSWDRLuAF7kE-29" target="U-xJB6DXRSWDRLuAF7kE-14">
          <mxGeometry relative="1" as="geometry">
            <mxPoint x="1220" y="530" as="sourcePoint" />
            <mxPoint x="1220" y="490" as="targetPoint" />
          </mxGeometry>
        </mxCell>
        <mxCell id="U-xJB6DXRSWDRLuAF7kE-72" value="num_doc" style="ellipse;whiteSpace=wrap;html=1;align=center;fontStyle=4;" vertex="1" parent="1">
          <mxGeometry y="190" width="100" height="40" as="geometry" />
        </mxCell>
        <mxCell id="U-xJB6DXRSWDRLuAF7kE-73" value="nombre" style="ellipse;whiteSpace=wrap;html=1;align=center;" vertex="1" parent="1">
          <mxGeometry y="240" width="100" height="40" as="geometry" />
        </mxCell>
        <mxCell id="U-xJB6DXRSWDRLuAF7kE-75" value="apellido" style="ellipse;whiteSpace=wrap;html=1;align=center;" vertex="1" parent="1">
          <mxGeometry y="290" width="100" height="40" as="geometry" />
        </mxCell>
        <mxCell id="U-xJB6DXRSWDRLuAF7kE-77" value="pass" style="ellipse;whiteSpace=wrap;html=1;align=center;" vertex="1" parent="1">
          <mxGeometry y="340" width="100" height="40" as="geometry" />
        </mxCell>
        <mxCell id="U-xJB6DXRSWDRLuAF7kE-83" value="id_estudios" style="ellipse;whiteSpace=wrap;html=1;align=center;fontStyle=4;" vertex="1" parent="1">
          <mxGeometry x="200" y="520" width="100" height="40" as="geometry" />
        </mxCell>
        <mxCell id="U-xJB6DXRSWDRLuAF7kE-84" value="nom_estudio" style="ellipse;whiteSpace=wrap;html=1;align=center;" vertex="1" parent="1">
          <mxGeometry x="310" y="520" width="100" height="40" as="geometry" />
        </mxCell>
        <mxCell id="U-xJB6DXRSWDRLuAF7kE-85" value="certificado_est" style="ellipse;whiteSpace=wrap;html=1;align=center;" vertex="1" parent="1">
          <mxGeometry x="420" y="520" width="100" height="40" as="geometry" />
        </mxCell>
        <mxCell id="U-xJB6DXRSWDRLuAF7kE-92" value="id_experiencia" style="ellipse;whiteSpace=wrap;html=1;align=center;fontStyle=4;" vertex="1" parent="1">
          <mxGeometry x="540" y="520" width="100" height="40" as="geometry" />
        </mxCell>
        <mxCell id="U-xJB6DXRSWDRLuAF7kE-93" value="nom_experiencia" style="ellipse;whiteSpace=wrap;html=1;align=center;" vertex="1" parent="1">
          <mxGeometry x="650" y="520" width="100" height="40" as="geometry" />
        </mxCell>
        <mxCell id="U-xJB6DXRSWDRLuAF7kE-94" value="certificado_exp" style="ellipse;whiteSpace=wrap;html=1;align=center;" vertex="1" parent="1">
          <mxGeometry x="760" y="520" width="100" height="40" as="geometry" />
        </mxCell>
        <mxCell id="U-xJB6DXRSWDRLuAF7kE-102" value="id_vacaciones" style="ellipse;whiteSpace=wrap;html=1;align=center;fontStyle=4;" vertex="1" parent="1">
          <mxGeometry x="780" y="350" width="100" height="40" as="geometry" />
        </mxCell>
        <mxCell id="U-xJB6DXRSWDRLuAF7kE-103" value="fecha_inicio" style="ellipse;whiteSpace=wrap;html=1;align=center;" vertex="1" parent="1">
          <mxGeometry x="890" y="350" width="100" height="40" as="geometry" />
        </mxCell>
        <mxCell id="U-xJB6DXRSWDRLuAF7kE-104" value="fecha_fin" style="ellipse;whiteSpace=wrap;html=1;align=center;" vertex="1" parent="1">
          <mxGeometry x="1000" y="350" width="100" height="40" as="geometry" />
        </mxCell>
        <mxCell id="U-xJB6DXRSWDRLuAF7kE-108" value="id_hvida" style="ellipse;whiteSpace=wrap;html=1;align=center;fontStyle=4;" vertex="1" parent="1">
          <mxGeometry x="370" y="180" width="100" height="40" as="geometry" />
        </mxCell>
        <mxCell id="U-xJB6DXRSWDRLuAF7kE-109" value="num_documento" style="ellipse;whiteSpace=wrap;html=1;align=center;" vertex="1" parent="1">
          <mxGeometry x="480" y="180" width="100" height="40" as="geometry" />
        </mxCell>
        <mxCell id="U-xJB6DXRSWDRLuAF7kE-110" value="nombre_completo" style="ellipse;whiteSpace=wrap;html=1;align=center;" vertex="1" parent="1">
          <mxGeometry x="590" y="180" width="100" height="40" as="geometry" />
        </mxCell>
        <mxCell id="U-xJB6DXRSWDRLuAF7kE-113" style="edgeStyle=orthogonalEdgeStyle;rounded=0;orthogonalLoop=1;jettySize=auto;html=1;exitX=0.5;exitY=0;exitDx=0;exitDy=0;entryX=0.38;entryY=1.075;entryDx=0;entryDy=0;entryPerimeter=0;" edge="1" parent="1" source="U-xJB6DXRSWDRLuAF7kE-2" target="U-xJB6DXRSWDRLuAF7kE-110">
          <mxGeometry relative="1" as="geometry" />
        </mxCell>
        <mxCell id="U-xJB6DXRSWDRLuAF7kE-116" value="id_hvida" style="ellipse;whiteSpace=wrap;html=1;align=center;fontStyle=4;" vertex="1" parent="1">
          <mxGeometry x="710" y="180" width="100" height="40" as="geometry" />
        </mxCell>
        <mxCell id="U-xJB6DXRSWDRLuAF7kE-117" value="num_documento" style="ellipse;whiteSpace=wrap;html=1;align=center;" vertex="1" parent="1">
          <mxGeometry x="820" y="180" width="100" height="40" as="geometry" />
        </mxCell>
        <mxCell id="U-xJB6DXRSWDRLuAF7kE-118" value="nombre_completo" style="ellipse;whiteSpace=wrap;html=1;align=center;" vertex="1" parent="1">
          <mxGeometry x="930" y="180" width="100" height="40" as="geometry" />
        </mxCell>
        <mxCell id="U-xJB6DXRSWDRLuAF7kE-124" value="id_cargo" style="ellipse;whiteSpace=wrap;html=1;align=center;fontStyle=4;" vertex="1" parent="1">
          <mxGeometry x="1120" y="80" width="100" height="40" as="geometry" />
        </mxCell>
        <mxCell id="U-xJB6DXRSWDRLuAF7kE-125" value="cargo" style="ellipse;whiteSpace=wrap;html=1;align=center;" vertex="1" parent="1">
          <mxGeometry x="1230" y="80" width="100" height="40" as="geometry" />
        </mxCell>
        <mxCell id="U-xJB6DXRSWDRLuAF7kE-126" value="desc_cargo" style="ellipse;whiteSpace=wrap;html=1;align=center;" vertex="1" parent="1">
          <mxGeometry x="1340" y="80" width="100" height="40" as="geometry" />
        </mxCell>
        <mxCell id="U-xJB6DXRSWDRLuAF7kE-131" value="id_jornadas" style="ellipse;whiteSpace=wrap;html=1;align=center;fontStyle=4;" vertex="1" parent="1">
          <mxGeometry x="1280" y="350" width="100" height="40" as="geometry" />
        </mxCell>
        <mxCell id="U-xJB6DXRSWDRLuAF7kE-132" value="reg_hora_ini" style="ellipse;whiteSpace=wrap;html=1;align=center;" vertex="1" parent="1">
          <mxGeometry x="1390" y="350" width="100" height="40" as="geometry" />
        </mxCell>
        <mxCell id="U-xJB6DXRSWDRLuAF7kE-133" value="reg_hora_fin" style="ellipse;whiteSpace=wrap;html=1;align=center;" vertex="1" parent="1">
          <mxGeometry x="1500" y="350" width="100" height="40" as="geometry" />
        </mxCell>
        <mxCell id="U-xJB6DXRSWDRLuAF7kE-137" value="id_vacantes" style="ellipse;whiteSpace=wrap;html=1;align=center;fontStyle=4;" vertex="1" parent="1">
          <mxGeometry x="1390" y="180" width="100" height="40" as="geometry" />
        </mxCell>
        <mxCell id="U-xJB6DXRSWDRLuAF7kE-138" value="desc_vacante" style="ellipse;whiteSpace=wrap;html=1;align=center;" vertex="1" parent="1">
          <mxGeometry x="1500" y="180" width="100" height="40" as="geometry" />
        </mxCell>
        <mxCell id="U-xJB6DXRSWDRLuAF7kE-139" value="estado_vacante" style="ellipse;whiteSpace=wrap;html=1;align=center;" vertex="1" parent="1">
          <mxGeometry x="1610" y="180" width="100" height="40" as="geometry" />
        </mxCell>
        <mxCell id="U-xJB6DXRSWDRLuAF7kE-143" value="id_aus" style="ellipse;whiteSpace=wrap;html=1;align=center;fontStyle=4;" vertex="1" parent="1">
          <mxGeometry x="880" y="700" width="100" height="40" as="geometry" />
        </mxCell>
        <mxCell id="U-xJB6DXRSWDRLuAF7kE-144" value="num_aus" style="ellipse;whiteSpace=wrap;html=1;align=center;" vertex="1" parent="1">
          <mxGeometry x="990" y="700" width="100" height="40" as="geometry" />
        </mxCell>
        <mxCell id="U-xJB6DXRSWDRLuAF7kE-145" value="fecha_aus" style="ellipse;whiteSpace=wrap;html=1;align=center;" vertex="1" parent="1">
          <mxGeometry x="1100" y="700" width="100" height="40" as="geometry" />
        </mxCell>
        <mxCell id="U-xJB6DXRSWDRLuAF7kE-149" value="id_horasextra" style="ellipse;whiteSpace=wrap;html=1;align=center;fontStyle=4;" vertex="1" parent="1">
          <mxGeometry x="1220" y="700" width="100" height="40" as="geometry" />
        </mxCell>
        <mxCell id="U-xJB6DXRSWDRLuAF7kE-150" value="ini_horasextra" style="ellipse;whiteSpace=wrap;html=1;align=center;" vertex="1" parent="1">
          <mxGeometry x="1330" y="700" width="100" height="40" as="geometry" />
        </mxCell>
        <mxCell id="U-xJB6DXRSWDRLuAF7kE-151" value="fin_horasextra" style="ellipse;whiteSpace=wrap;html=1;align=center;" vertex="1" parent="1">
          <mxGeometry x="1440" y="700" width="100" height="40" as="geometry" />
        </mxCell>
        <mxCell id="U-xJB6DXRSWDRLuAF7kE-152" style="edgeStyle=orthogonalEdgeStyle;rounded=0;orthogonalLoop=1;jettySize=auto;html=1;exitX=0.5;exitY=1;exitDx=0;exitDy=0;entryX=0.5;entryY=0;entryDx=0;entryDy=0;" edge="1" parent="1" source="U-xJB6DXRSWDRLuAF7kE-17" target="U-xJB6DXRSWDRLuAF7kE-149">
          <mxGeometry relative="1" as="geometry" />
        </mxCell>
        <mxCell id="U-xJB6DXRSWDRLuAF7kE-154" style="edgeStyle=orthogonalEdgeStyle;rounded=0;orthogonalLoop=1;jettySize=auto;html=1;exitX=0.5;exitY=1;exitDx=0;exitDy=0;entryX=0.5;entryY=0;entryDx=0;entryDy=0;" edge="1" parent="1" source="U-xJB6DXRSWDRLuAF7kE-17" target="U-xJB6DXRSWDRLuAF7kE-151">
          <mxGeometry relative="1" as="geometry" />
        </mxCell>
        <mxCell id="U-xJB6DXRSWDRLuAF7kE-155" value="id_cita" style="ellipse;whiteSpace=wrap;html=1;align=center;fontStyle=4;" vertex="1" parent="1">
          <mxGeometry x="1730" width="100" height="40" as="geometry" />
        </mxCell>
        <mxCell id="U-xJB6DXRSWDRLuAF7kE-156" value="fecha_cita" style="ellipse;whiteSpace=wrap;html=1;align=center;" vertex="1" parent="1">
          <mxGeometry x="1840" width="100" height="40" as="geometry" />
        </mxCell>
        <mxCell id="U-xJB6DXRSWDRLuAF7kE-157" value="desc_cita" style="ellipse;whiteSpace=wrap;html=1;align=center;" vertex="1" parent="1">
          <mxGeometry x="1950" width="100" height="40" as="geometry" />
        </mxCell>
        <mxCell id="U-xJB6DXRSWDRLuAF7kE-161" value="id_postulacion" style="ellipse;whiteSpace=wrap;html=1;align=center;fontStyle=4;" vertex="1" parent="1">
          <mxGeometry x="1980" y="210" width="100" height="40" as="geometry" />
        </mxCell>
        <mxCell id="U-xJB6DXRSWDRLuAF7kE-162" value="fecha_postulacion" style="ellipse;whiteSpace=wrap;html=1;align=center;" vertex="1" parent="1">
          <mxGeometry x="1980" y="260" width="100" height="40" as="geometry" />
        </mxCell>
        <mxCell id="U-xJB6DXRSWDRLuAF7kE-163" value="estado" style="ellipse;whiteSpace=wrap;html=1;align=center;" vertex="1" parent="1">
          <mxGeometry x="1980" y="310" width="100" height="40" as="geometry" />
        </mxCell>
        <mxCell id="U-xJB6DXRSWDRLuAF7kE-167" value="id_contrato" style="ellipse;whiteSpace=wrap;html=1;align=center;fontStyle=4;" vertex="1" parent="1">
          <mxGeometry x="1980" y="390" width="100" height="40" as="geometry" />
        </mxCell>
        <mxCell id="U-xJB6DXRSWDRLuAF7kE-168" value="fecha_inicial" style="ellipse;whiteSpace=wrap;html=1;align=center;" vertex="1" parent="1">
          <mxGeometry x="1980" y="440" width="100" height="40" as="geometry" />
        </mxCell>
        <mxCell id="U-xJB6DXRSWDRLuAF7kE-169" value="fecha_final" style="ellipse;whiteSpace=wrap;html=1;align=center;" vertex="1" parent="1">
          <mxGeometry x="1980" y="490" width="100" height="40" as="geometry" />
        </mxCell>
        <mxCell id="U-xJB6DXRSWDRLuAF7kE-173" value="id_pys" style="ellipse;whiteSpace=wrap;html=1;align=center;fontStyle=4;" vertex="1" parent="1">
          <mxGeometry x="1730" y="700" width="100" height="40" as="geometry" />
        </mxCell>
        <mxCell id="U-xJB6DXRSWDRLuAF7kE-174" value="pazysalvo" style="ellipse;whiteSpace=wrap;html=1;align=center;" vertex="1" parent="1">
          <mxGeometry x="1840" y="700" width="100" height="40" as="geometry" />
        </mxCell>
        <mxCell id="U-xJB6DXRSWDRLuAF7kE-175" value="fecha_emision" style="ellipse;whiteSpace=wrap;html=1;align=center;" vertex="1" parent="1">
          <mxGeometry x="1950" y="700" width="100" height="40" as="geometry" />
        </mxCell>
      </root>
    </mxGraphModel>
  </diagram>
</mxfile>
